<svg version="1.1" id="Layer_1" xmlns="http://www.w3.org/2000/svg" xmlns:xlink="http://www.w3.org/1999/xlink" x="0px" y="0px"
	 width="100%" viewBox="0 0 496 496" enable-background="new 0 0 496 496" xml:space="preserve">
<path fill="#000000" opacity="1.000000" stroke="none" 
	d="
M252.156219,112.838692 
	C266.155914,109.417122 279.699432,108.849236 292.398071,115.689003 
	C299.565857,119.549751 305.747589,124.813622 305.320160,134.258148 
	C304.938080,142.700760 297.315094,146.985184 290.140961,142.446182 
	C284.105499,138.627625 278.693665,133.829926 272.695374,129.944901 
	C254.620667,118.238060 244.840454,122.877190 231.910629,133.266937 
	C224.994019,138.824783 223.522781,146.680405 226.108093,155.053040 
	C230.694336,169.905716 240.469101,181.579880 250.010498,193.379517 
	C262.492279,208.815460 277.575134,221.917343 289.835388,237.527985 
	C306.107544,258.246826 315.684570,281.749664 314.054810,308.269287 
	C311.810730,344.785370 295.472321,373.333008 261.655945,389.618500 
	C248.374237,396.014801 233.840469,397.513916 219.257141,393.356873 
	C212.122162,391.323059 206.448196,387.079498 202.120300,381.061798 
	C199.154999,376.938660 198.769302,372.386475 200.505920,367.767792 
	C203.050125,361.001282 208.053818,359.147766 214.360321,362.566223 
	C219.507050,365.356049 224.028336,369.034058 228.474747,372.836884 
	C241.840973,384.268402 255.586456,385.217621 268.517395,375.763000 
	C277.808197,368.969910 281.131226,359.565796 277.909668,348.484863 
	C273.559174,333.520905 263.937714,321.731689 254.263565,310.034485 
	C242.988739,296.401947 229.920319,284.461609 217.709900,271.710846 
	C199.575256,252.773712 189.416168,230.071976 188.237442,204.043869 
	C187.249084,182.219437 194.718857,162.432114 207.571793,144.870255 
	C218.804688,129.521957 233.459839,118.644432 252.156219,112.838692 
M209.696915,159.416351 
	C197.521469,184.984467 198.853516,209.500153 215.027649,233.092957 
	C222.516968,244.017426 231.277908,253.726959 240.993362,262.651642 
	C254.137390,274.725830 266.707581,287.341766 276.767120,302.189178 
	C285.543213,315.142303 292.275848,328.828857 290.502930,346.150360 
	C297.341736,334.099548 301.261200,322.276215 300.384186,309.250824 
	C298.990997,288.560181 289.352936,271.511444 276.305389,256.094940 
	C264.143585,241.724976 249.718658,229.460266 237.732666,214.920563 
	C223.640976,197.826508 210.538635,180.272308 211.988647,155.039978 
	C210.898575,157.136917 210.457809,157.984818 209.696915,159.416351 
z"/>
</svg>